<mxfile host="app.diagrams.net" agent="Mozilla/5.0 (Windows NT 10.0; Win64; x64) AppleWebKit/537.36 (KHTML, like Gecko) Chrome/137.0.0.0 Safari/537.36 OPR/121.0.0.0" version="28.2.4">
  <diagram name="Page-1" id="Fx-GReaQktsAN9sXaCkw">
    <mxGraphModel grid="1" page="1" gridSize="10" guides="1" tooltips="1" connect="1" arrows="1" fold="1" pageScale="1" pageWidth="850" pageHeight="1100" math="0" shadow="0">
      <root>
        <mxCell id="0" />
        <mxCell id="1" parent="0" />
        <mxCell id="abden3-AorhbSkLpdnIb-2" value="" style="rounded=0;whiteSpace=wrap;html=1;" vertex="1" parent="1">
          <mxGeometry x="360" y="120" width="280" height="300" as="geometry" />
        </mxCell>
        <mxCell id="abden3-AorhbSkLpdnIb-8" style="edgeStyle=orthogonalEdgeStyle;rounded=0;orthogonalLoop=1;jettySize=auto;html=1;entryX=0;entryY=0.5;entryDx=0;entryDy=0;" edge="1" parent="1" source="abden3-AorhbSkLpdnIb-1" target="abden3-AorhbSkLpdnIb-4">
          <mxGeometry relative="1" as="geometry">
            <Array as="points">
              <mxPoint x="340" y="180" />
              <mxPoint x="340" y="155" />
            </Array>
          </mxGeometry>
        </mxCell>
        <mxCell id="abden3-AorhbSkLpdnIb-9" style="edgeStyle=orthogonalEdgeStyle;rounded=0;orthogonalLoop=1;jettySize=auto;html=1;entryX=0;entryY=0.5;entryDx=0;entryDy=0;" edge="1" parent="1" source="abden3-AorhbSkLpdnIb-1" target="abden3-AorhbSkLpdnIb-6">
          <mxGeometry relative="1" as="geometry">
            <Array as="points">
              <mxPoint x="340" y="180" />
              <mxPoint x="340" y="225" />
            </Array>
          </mxGeometry>
        </mxCell>
        <mxCell id="abden3-AorhbSkLpdnIb-10" style="edgeStyle=orthogonalEdgeStyle;rounded=0;orthogonalLoop=1;jettySize=auto;html=1;entryX=0;entryY=0.5;entryDx=0;entryDy=0;" edge="1" parent="1" source="abden3-AorhbSkLpdnIb-1" target="abden3-AorhbSkLpdnIb-5">
          <mxGeometry relative="1" as="geometry">
            <Array as="points">
              <mxPoint x="340" y="180" />
              <mxPoint x="340" y="295" />
            </Array>
          </mxGeometry>
        </mxCell>
        <mxCell id="abden3-AorhbSkLpdnIb-11" style="edgeStyle=orthogonalEdgeStyle;rounded=0;orthogonalLoop=1;jettySize=auto;html=1;entryX=0;entryY=0.5;entryDx=0;entryDy=0;" edge="1" parent="1" source="abden3-AorhbSkLpdnIb-1" target="abden3-AorhbSkLpdnIb-7">
          <mxGeometry relative="1" as="geometry">
            <Array as="points">
              <mxPoint x="340" y="180" />
              <mxPoint x="340" y="365" />
            </Array>
          </mxGeometry>
        </mxCell>
        <mxCell id="abden3-AorhbSkLpdnIb-1" value="Buyer" style="shape=umlActor;verticalLabelPosition=bottom;verticalAlign=top;html=1;outlineConnect=0;" vertex="1" parent="1">
          <mxGeometry x="240" y="150" width="30" height="60" as="geometry" />
        </mxCell>
        <mxCell id="abden3-AorhbSkLpdnIb-3" value="Profile Page" style="text;html=1;align=center;verticalAlign=middle;whiteSpace=wrap;rounded=0;" vertex="1" parent="1">
          <mxGeometry x="450" y="90" width="100" height="30" as="geometry" />
        </mxCell>
        <mxCell id="abden3-AorhbSkLpdnIb-4" value="Become Seller Option" style="ellipse;whiteSpace=wrap;html=1;" vertex="1" parent="1">
          <mxGeometry x="465" y="130" width="70" height="50" as="geometry" />
        </mxCell>
        <mxCell id="abden3-AorhbSkLpdnIb-5" value="Set Default Address" style="ellipse;whiteSpace=wrap;html=1;" vertex="1" parent="1">
          <mxGeometry x="465" y="270" width="70" height="50" as="geometry" />
        </mxCell>
        <mxCell id="abden3-AorhbSkLpdnIb-6" value="Account Creation" style="ellipse;whiteSpace=wrap;html=1;" vertex="1" parent="1">
          <mxGeometry x="465" y="200" width="70" height="50" as="geometry" />
        </mxCell>
        <mxCell id="abden3-AorhbSkLpdnIb-7" value="Delete Address" style="ellipse;whiteSpace=wrap;html=1;" vertex="1" parent="1">
          <mxGeometry x="465" y="340" width="70" height="50" as="geometry" />
        </mxCell>
      </root>
    </mxGraphModel>
  </diagram>
</mxfile>
